<?xml version="1.0" encoding="utf-8"?>
<!-- Generator: Adobe Illustrator 17.0.0, SVG Export Plug-In . SVG Version: 6.00 Build 0)  -->
<!DOCTYPE svg PUBLIC "-//W3C//DTD SVG 1.1//EN" "http://www.w3.org/Graphics/SVG/1.1/DTD/svg11.dtd">
<svg version="1.1" id="Layer_1" xmlns="http://www.w3.org/2000/svg" xmlns:xlink="http://www.w3.org/1999/xlink" x="0px" y="0px"
	 width="80px" height="80px" viewBox="0 0 80 80" enable-background="new 0 0 80 80" xml:space="preserve">
<g id="_x31_" display="none">
	<path display="inline" fill="none" stroke="#FFFFFF" stroke-width="2" stroke-miterlimit="10" d="M62.674,69.677
		c5.703,0,7.65-3.849,7.65-6.712V35.683v-0.885c0-3.958-2.886-7.195-6.411-7.195H38.359c-0.828-2.905-3.257-5.026-6.112-5.026
		H21.479c-3.143,0-5.776,2.571-6.312,5.931v9.713"/>
	<path display="inline" fill="none" stroke="#FFFFFF" stroke-width="2" stroke-linecap="round" stroke-miterlimit="10" d="
		M20.193,33.299h39.481c2.58,0,4.692,2.111,4.692,4.692v12.707"/>
	
		<line display="inline" fill="none" stroke="#FFFFFF" stroke-width="2" stroke-linecap="round" stroke-linejoin="round" stroke-miterlimit="10" x1="42.903" y1="5.541" x2="42.859" y2="22.576"/>
	
		<polyline display="inline" fill="none" stroke="#FFFFFF" stroke-width="2" stroke-linecap="round" stroke-linejoin="round" stroke-miterlimit="10" points="
		34.46,15.545 42.934,5.294 51.946,15.545 	"/>
	<path display="inline" fill="none" stroke="#FFFFFF" stroke-width="2" stroke-linecap="round" stroke-miterlimit="10" d="
		M6.809,44.21l9.616,20.252c1.428,2.868,4.993,5.215,7.92,5.215h38.328c2.929,0,4.155-2.347,2.727-5.215L55.787,44.21
		c-1.432-2.868-4.994-5.213-7.921-5.213H9.534C6.607,38.997,5.379,41.342,6.809,44.21z"/>
</g>
<g id="_x32_" display="none">
	
		<line display="inline" fill="none" stroke="#FFFFFF" stroke-width="2" stroke-linecap="round" stroke-linejoin="round" stroke-miterlimit="10" x1="71.501" y1="66.137" x2="19.66" y2="66.137"/>
	
		<path display="inline" fill="none" stroke="#FFFFFF" stroke-width="2" stroke-linecap="round" stroke-linejoin="round" stroke-miterlimit="10" d="
		M56.5,62.552V27.485c0-1.019,0.826-1.846,1.846-1.846h8.467c1.019,0,1.846,0.826,1.846,1.846v35.067"/>
	
		<path display="inline" fill="none" stroke="#FFFFFF" stroke-width="2" stroke-linecap="round" stroke-linejoin="round" stroke-miterlimit="10" d="
		M25.699,33.871h7.157c1.019,0,1.846,0.826,1.846,1.846v26.835"/>
	
		<line display="inline" fill="none" stroke="#FFFFFF" stroke-width="2" stroke-linecap="round" stroke-linejoin="round" stroke-miterlimit="10" x1="22.543" y1="62.552" x2="22.543" y2="59.933"/>
	
		<path display="inline" fill="none" stroke="#FFFFFF" stroke-width="2" stroke-linecap="round" stroke-linejoin="round" stroke-miterlimit="10" d="
		M39.501,62.552v-48.9c0-1.019,0.826-1.846,1.846-1.846h8.467c1.019,0,1.846,0.826,1.846,1.846v48.9"/>
	<g display="inline">
		
			<circle fill="none" stroke="#FFFFFF" stroke-width="2" stroke-linecap="round" stroke-linejoin="round" stroke-miterlimit="10" cx="22.526" cy="46.82" r="9.629"/>
		<path fill="none" stroke="#FFFFFF" stroke-width="2" stroke-linecap="round" stroke-linejoin="round" stroke-miterlimit="10" d="
			M18.5,42.774c2.23-2.23,5.857-2.23,8.087,0c2.23,2.23,2.229,5.857,0,8.087c-2.23,2.23-5.857,2.23-8.087,0
			C16.27,48.631,16.27,45.004,18.5,42.774z"/>
		<g>
			<path fill="none" stroke="#FFFFFF" stroke-width="2" stroke-linecap="round" stroke-linejoin="round" stroke-miterlimit="10" d="
				M13.452,51.738l-7.605,7.605c-1.132,1.132-1.138,2.963-0.013,4.088c1.125,1.125,2.956,1.119,4.088-0.013l7.605-7.605"/>
		</g>
	</g>
</g>
<g id="_x33_" display="none">
	<g display="inline">
		
			<line fill="none" stroke="#FFFFFF" stroke-width="2" stroke-linecap="round" stroke-linejoin="round" stroke-miterlimit="10" x1="32.52" y1="51.658" x2="56.04" y2="51.658"/>
		
			<line fill="none" stroke="#FFFFFF" stroke-width="2" stroke-linecap="round" stroke-linejoin="round" stroke-miterlimit="10" x1="26.988" y1="22.012" x2="26.988" y2="37.489"/>
		
			<polyline fill="none" stroke="#FFFFFF" stroke-width="2" stroke-linecap="round" stroke-linejoin="round" stroke-miterlimit="10" points="
			17.557,12.16 17.557,5.965 26.988,5.965 26.988,12.16 		"/>
		
			<line fill="none" stroke="#FFFFFF" stroke-width="2" stroke-linecap="round" stroke-linejoin="round" stroke-miterlimit="10" x1="17.549" y1="46.899" x2="17.557" y2="22.012"/>
		
			<polyline fill="none" stroke="#FFFFFF" stroke-width="2" stroke-linecap="round" stroke-linejoin="round" stroke-miterlimit="10" points="
			56.04,51.658 71.784,51.658 71.784,61.089 22.93,61.089 		"/>
	</g>
	<g display="inline">
		
			<polyline fill="none" stroke="#FFFFFF" stroke-width="2" stroke-linecap="round" stroke-linejoin="round" stroke-miterlimit="10" points="
			55.954,51.591 55.954,21.682 11.158,21.682 11.158,12.251 65.385,12.251 65.385,51.423 		"/>
		
			<polyline fill="none" stroke="#FFFFFF" stroke-width="2" stroke-linecap="round" stroke-linejoin="round" stroke-miterlimit="10" points="
			65.385,62.105 65.385,67.374 55.954,67.374 55.954,61.263 		"/>
	</g>
	
		<line display="inline" fill="none" stroke="#FFFFFF" stroke-width="2" stroke-linecap="round" stroke-linejoin="round" stroke-miterlimit="10" x1="19.162" y1="64.374" x2="10.287" y2="55.499"/>
	
		<path display="inline" fill="none" stroke="#FFFFFF" stroke-width="2" stroke-linecap="round" stroke-linejoin="round" stroke-miterlimit="10" d="
		M24.862,39.764l-18.09,18.09c-2.693,2.693-2.707,7.047-0.031,9.723c2.676,2.676,7.03,2.662,9.723-0.031l18.09-18.09l1.544-1.367
		c1.272-1.282,5.64-14.674,5.494-14.82c-0.019-0.324-0.275-0.596-0.6-0.595c-0.147-0.146-13.506,4.323-14.778,5.606L24.862,39.764z"
		/>
</g>
<g id="_x34_" display="none">
	<path display="inline" fill="none" stroke="#FFFFFF" stroke-width="2" stroke-linecap="round" stroke-miterlimit="10" d="
		M44.857,58.21h18.185c2.513,0,4.568-2.056,4.568-4.568V10.934c0-2.513-2.056-4.568-4.568-4.568H29.538
		c-2.513,0-4.568,2.056-4.568,4.568v23.421"/>
	<path display="inline" fill="none" stroke="#FFFFFF" stroke-width="2" stroke-linecap="round" stroke-miterlimit="10" d="
		M41.693,65.037h16.468c1.945,0,3.616-1.231,4.272-2.953"/>
	<path display="inline" fill="none" stroke="#FFFFFF" stroke-width="2" stroke-linecap="round" stroke-miterlimit="10" d="
		M20.717,16.052c-0.879,0.834-1.429,2.012-1.429,3.312v16.267"/>
	
		<circle display="inline" fill="none" stroke="#FFFFFF" stroke-width="2" stroke-linecap="round" stroke-miterlimit="10" cx="26.208" cy="53.519" r="15.085"/>
	<g display="inline">
		
			<polygon fill="none" stroke="#FFFFFF" stroke-width="2" stroke-linecap="round" stroke-linejoin="round" stroke-miterlimit="10" points="
			24.502,61.726 16.061,53.284 19.166,50.179 24.502,55.515 32.675,47.342 35.78,50.448 		"/>
	</g>
	
		<line display="inline" fill="none" stroke="#FFFFFF" stroke-width="2" stroke-linecap="round" stroke-miterlimit="10" x1="61.43" y1="16.337" x2="31.089" y2="16.337"/>
	
		<line display="inline" fill="none" stroke="#FFFFFF" stroke-width="2" stroke-linecap="round" stroke-miterlimit="10" x1="61.43" y1="24.323" x2="31.089" y2="24.323"/>
	
		<line display="inline" fill="none" stroke="#FFFFFF" stroke-width="2" stroke-linecap="round" stroke-miterlimit="10" x1="61.43" y1="32.309" x2="31.089" y2="32.309"/>
	
		<line display="inline" fill="none" stroke="#FFFFFF" stroke-width="2" stroke-linecap="round" stroke-miterlimit="10" x1="61.43" y1="40.295" x2="42.18" y2="40.295"/>
	
		<line display="inline" fill="none" stroke="#FFFFFF" stroke-width="2" stroke-linecap="round" stroke-miterlimit="10" x1="61.43" y1="48.281" x2="46.452" y2="48.281"/>
</g>
<g id="_x35_">
	<path fill="none" stroke="#FFFFFF" stroke-width="2" stroke-linecap="round" stroke-miterlimit="10" d="M59.822,71.689H21.178
		c-2.766,0-5.029-2.263-5.029-5.029V10.826c0-2.766,2.263-5.029,5.029-5.029h38.645c2.766,0,5.029,2.263,5.029,5.029V66.66
		C64.851,69.426,62.588,71.689,59.822,71.689z"/>
	<g>
		
			<circle fill="none" stroke="#FFFFFF" stroke-width="2" stroke-linecap="round" stroke-miterlimit="10" cx="53.3" cy="37.321" r="3.16"/>
		
			<circle fill="none" stroke="#FFFFFF" stroke-width="2" stroke-linecap="round" stroke-miterlimit="10" cx="41.188" cy="37.321" r="3.16"/>
		
			<circle fill="none" stroke="#FFFFFF" stroke-width="2" stroke-linecap="round" stroke-miterlimit="10" cx="29.075" cy="37.321" r="3.16"/>
		
			<circle fill="none" stroke="#FFFFFF" stroke-width="2" stroke-linecap="round" stroke-miterlimit="10" cx="53.3" cy="48.677" r="3.16"/>
		
			<circle fill="none" stroke="#FFFFFF" stroke-width="2" stroke-linecap="round" stroke-miterlimit="10" cx="41.188" cy="48.677" r="3.16"/>
		
			<circle fill="none" stroke="#FFFFFF" stroke-width="2" stroke-linecap="round" stroke-miterlimit="10" cx="29.075" cy="48.677" r="3.16"/>
		
			<circle fill="none" stroke="#FFFFFF" stroke-width="2" stroke-linecap="round" stroke-miterlimit="10" cx="53.3" cy="60.033" r="3.16"/>
		
			<circle fill="none" stroke="#FFFFFF" stroke-width="2" stroke-linecap="round" stroke-miterlimit="10" cx="41.188" cy="60.033" r="3.16"/>
		
			<circle fill="none" stroke="#FFFFFF" stroke-width="2" stroke-linecap="round" stroke-miterlimit="10" cx="29.075" cy="60.033" r="3.16"/>
	</g>
	
		<rect x="24.903" y="16.366" fill="none" stroke="#FFFFFF" stroke-width="2" stroke-linecap="round" stroke-miterlimit="10" width="31.772" height="9.508"/>
</g>
</svg>
