<?xml version="1.0" encoding="utf-8"?>
<!-- Generator: Adobe Illustrator 19.1.0, SVG Export Plug-In . SVG Version: 6.00 Build 0)  -->
<svg version="1.1" id="Layer_1" xmlns="http://www.w3.org/2000/svg" xmlns:xlink="http://www.w3.org/1999/xlink" x="0px" y="0px"
	 width="33.4px" height="44.5px" viewBox="-281.7 414.8 33.4 44.5" style="enable-background:new -281.7 414.8 33.4 44.5;" xml:space="preserve">
<style type="text/css">
	.st0{fill:#FFFFFF;}
</style>
<g id="Layer_1_1_">
	<g>
		<path class="st0" d="M-253.8,441.2h-21.6c-0.6,0-1-0.4-1-1s0.4-1,1-1h21.6c0.6,0,1,0.4,1,1S-253.2,441.2-253.8,441.2z"/>
	</g>
	<g>
		<path class="st0" d="M-253.8,445.7h-21.6c-0.6,0-1-0.4-1-1s0.4-1,1-1h21.6c0.6,0,1,0.4,1,1S-253.2,445.7-253.8,445.7z"/>
	</g>
	<g>
		<path class="st0" d="M-253.8,450.3h-21.6c-0.6,0-1-0.4-1-1s0.4-1,1-1h21.6c0.6,0,1,0.4,1,1S-253.2,450.3-253.8,450.3z"/>
	</g>
	<g>
		<path class="st0" d="M-253.8,454.8h-21.6c-0.6,0-1-0.4-1-1s0.4-1,1-1h21.6c0.6,0,1,0.4,1,1C-252.8,454.3-253.2,454.8-253.8,454.8z
			"/>
	</g>
	<g>
		<g>
			<path class="st0" d="M-252.5,459.3h-25c-2.3,0-4.2-1.9-4.2-4.2V419c0-2.3,1.9-4.2,4.2-4.2h25c2.3,0,4.2,1.9,4.2,4.2v36.1
				C-248.3,457.3-250.2,459.3-252.5,459.3z M-277.5,416.7c-1.2,0-2.2,1-2.2,2.2V455c0,1.2,1,2.2,2.2,2.2h25c1.2,0,2.2-1,2.2-2.2
				v-36.1c0-1.2-1-2.2-2.2-2.2H-277.5z"/>
		</g>
	</g>
	<g>
		<g>
			<path class="st0" d="M-252.6,425.8h-4.7c-1.6,0-2.9-1.3-3.8-2.3c-0.3-0.3-0.5-0.5-0.7-0.7l-0.2-0.2c-0.3-0.3-0.9-0.5-1.6-0.5
				h-17.1v-2h17.1c0.9,0,2.1,0.2,2.9,1.1l0.2,0.2c0.3,0.2,0.5,0.5,0.8,0.8c0.8,0.8,1.6,1.7,2.4,1.7h4.7c1.3,0,2.3-1,2.3-2.3v-0.3h2
				v0.4C-248.3,423.9-250.2,425.8-252.6,425.8z"/>
		</g>
	</g>
	<g>
		<rect x="-280.8" y="434.7" class="st0" width="31.5" height="2"/>
	</g>
</g>
</svg>
