<?xml version="1.0" encoding="utf-8"?>
<!-- Generator: Adobe Illustrator 19.1.0, SVG Export Plug-In . SVG Version: 6.00 Build 0)  -->
<svg version="1.1" id="Layer_1" xmlns="http://www.w3.org/2000/svg" xmlns:xlink="http://www.w3.org/1999/xlink" x="0px" y="0px"
	 height="44px" viewBox="-161 340.5 288 112.5" style="enable-background:new -161 340.5 288 112.5;" xml:space="preserve">
<style type="text/css">
	.st0{fill:#FFFFFF;}
	.st1{display:none;fill:#FFFFFF;}
</style>
<g>
	<path class="st0" d="M110.9,372.9c-2.4,0-4.4,1.9-4.4,4.4s1.9,4.5,4.4,4.5s4.4-1.9,4.4-4.4S113.4,372.9,110.9,372.9z M110.9,381.1
		c-2,0-3.6-1.7-3.6-3.8c0-2.1,1.6-3.7,3.6-3.7s3.5,1.7,3.5,3.7C114.4,379.4,112.9,381.1,110.9,381.1z"/>
	<path class="st0" d="M111.8,377.5c0.8-0.5,0.9-0.9,0.8-1.6c-0.2-0.7-0.7-0.9-1.3-1c-0.6-0.1-1.1,0-1.7,0c-0.3,0-0.4,0.2-0.4,0.5
		c0,1.1,0,2.1,0,3.2c0,0.4,0,0.9,0,1.3c0.3,0,0.6,0,0.8,0c0-0.7,0-1.4,0-2.1c1.2-0.1,1.4,0,1.6,1.2c0,0.1,0.1,0.2,0.1,0.3
		c0.2,0.7,0.2,0.8,1,0.6C112.5,379,112.7,378.1,111.8,377.5z M111.7,376.6c-0.3,0.6-1,0.5-1.6,0.5c0-0.6,0-1.1,0-1.6
		c0.6-0.1,1.1-0.2,1.5,0.3C111.8,376,111.8,376.4,111.7,376.6z"/>
</g>
<path class="st1" d="M-88.8,369.3c-0.8,0-1.6,0.1-2.4,0.2V351c-1.2-0.3-2.4-0.6-3.6-0.7v20.1c-3.4,1.1-6.5,3.1-8.8,5.9
	c-2.4-2.6-5.6-4.6-9.3-5.6c-5.4-1.4-11.1-0.5-15.6,2.5l2,3c3.7-2.5,8.3-3.2,12.7-2.1c3.1,0.8,5.7,2.5,7.7,4.6
	c-2.3,6-8.6,10-15.4,9.4c-1.9-0.1-2.9-0.5-3.1-0.7l-2.9-2.3v3.7V418c1.1,1,2.3,2,3.6,2.9c0-2.4,0-14.7,0-15.9
	c0.6,0.2,1.3,0.5,1.9,0.7c10.1,2.7,20.3-3.1,22.9-12.8c1.3-4.9,0.4-9.8-2.1-13.9c1.7-2.3,3.9-4,6.5-5.1v20.9h3.6v-21.7
	c0.8-0.1,1.6-0.2,2.4-0.2c8.4,0,15.3,6.5,15.3,14.6c0,8-6.9,14.6-15.3,14.6c-1.6,0-3.1-0.2-4.6-0.7l-1,3.4c1.8,0.5,3.7,0.8,5.6,0.8
	c10.4,0,18.9-8.2,18.9-18.2C-69.9,377.5-78.4,369.3-88.8,369.3z M-102.7,392.1c-2,7.8-10.4,12.4-18.5,10.2c-1-0.3-1.9-0.6-2.8-1.1
	v-9.9c0.8,0.2,1.5,0.3,2.2,0.3c7.6,0.6,14.6-3.3,18.1-9.5C-102.3,385.2-101.8,388.7-102.7,392.1z"/>
<g>
	<g>
		<path class="st0" d="M-37.9,374.2h14c5.7,0,9.4,3.2,9.4,8.6c0,5.4-3.7,8.6-9.4,8.6h-11v12.9h-3C-37.9,404.3-37.9,374.2-37.9,374.2
			z M-34.9,389h10.4c4.2,0,7-2,7-6.2c0-4.1-2.9-6.2-7-6.2h-10.4V389z"/>
		<path class="st0" d="M-6.8,374.2h3.4L9,404.4H5.8L1.9,395h-14.4l-3.8,9.4h-3.2L-6.8,374.2z M-11.6,392.5H0.8L-5.3,377L-11.6,392.5
			z"/>
		<path class="st0" d="M32.1,383.3c-1.1-4.7-5.1-7.3-9.7-7.3c-8.4,0-11.9,6.7-11.9,13.3c0,6.6,3.5,13.3,11.9,13.3
			c5.8,0,9.6-4.3,10.1-9.7h3c-0.8,7.4-5.8,12.1-13.2,12.1c-10,0-14.9-7.5-14.9-15.7c0-8.2,5-15.7,14.9-15.7c6,0,11.9,3.4,12.7,9.8
			h-2.9V383.3z"/>
	</g>
	<g>
		<path class="st0" d="M40.8,374.2h11c2.7,0,6.2,0,8,1.1c2,1.2,3.6,3.3,3.6,6.3c0,3.2-1.7,5.6-4.5,6.8v0.1c3.7,0.8,5.8,3.6,5.8,7.3
			c0,4.4-3.2,8.7-9.2,8.7H40.9v-30.3H40.8z M44.8,387.2h8c4.6,0,6.4-1.6,6.4-4.8c0-4.2-3-4.8-6.4-4.8h-8V387.2z M44.8,401h10.1
			c3.5,0,5.7-2.1,5.7-5.4c0-3.9-3.2-5-6.6-5h-9.2V401z"/>
		<path class="st0" d="M68.6,374.2h4v30.2h-4V374.2z"/>
		<path class="st0" d="M90.9,373.5c9.6,0,14.5,7.6,14.5,15.8c0,8.2-4.9,15.8-14.5,15.8s-14.5-7.6-14.5-15.8
			C76.4,381.1,81.3,373.5,90.9,373.5z M90.9,401.7c7.4,0,10.4-6.3,10.4-12.4c0-6.1-3.1-12.4-10.4-12.4c-7.4,0-10.5,6.3-10.5,12.4
			C80.5,395.4,83.6,401.7,90.9,401.7z"/>
	</g>
</g>
<path class="st0" d="M-102.7,392.1c0.9-3.4,0.4-6.9-1-9.9c-3.4,6.2-10.5,10.1-18.1,9.5c-0.7-0.1-1.5-0.2-2.2-0.3v9.9
	c0.9,0.4,1.8,0.8,2.8,1.1C-113.1,404.5-104.8,399.9-102.7,392.1z"/>
<path class="st0" d="M-127.6,385.2l2.9,2.3c0.2,0.2,1.3,0.6,3.1,0.7c6.8,0.5,13.1-3.4,15.4-9.4c-2-2.2-4.6-3.8-7.7-4.6
	c-4.4-1.2-9-0.4-12.7,2.1l-2-3c4.5-3,10.2-4,15.6-2.5c3.7,1,6.9,3,9.3,5.6c2.3-2.8,5.3-4.8,8.8-5.9v-20.3c-2-0.3-4.1-0.5-6.2-0.5
	c-21.8,0-39.4,17.6-39.4,39.4c0,11.5,5,21.8,12.8,29v-29.2L-127.6,385.2z"/>
<path class="st0" d="M-91.2,351v18.5c0.8-0.1,1.6-0.2,2.4-0.2c10.4,0,18.9,8.2,18.9,18.2s-8.5,18.2-18.9,18.2
	c-1.9,0-3.8-0.3-5.6-0.8l1-3.4c1.5,0.4,3,0.7,4.6,0.7c8.4,0,15.3-6.5,15.3-14.6c0-8-6.9-14.6-15.3-14.6c-0.8,0-1.6,0.1-2.4,0.2v21.9
	h-3.6v-21c-2.6,1.1-4.8,2.8-6.5,5.1c2.5,4.1,3.4,9,2.1,13.9c-2.6,9.6-12.9,15.4-23,12.7c-0.7-0.2-1.3-0.4-1.9-0.7
	c0,6.3,0,12.9,0,15.9c6.5,4.7,14.4,7.4,23,7.4c21.8,0,39.4-17.6,39.4-39.4C-61.7,370.7-74.3,355.3-91.2,351z"/>
</svg>
